HIERARCHY
ROOT pelvis
{
  OFFSET 0 0 0
  CHANNELS 6 Xposition Yposition Zposition Zrotation Xrotation Yrotation
  JOINT pelvis_right_femur
  {
    OFFSET -11.43119 -3.542788 0.2090856
    CHANNELS 3 Zrotation Xrotation Yrotation
    JOINT right_femur_tibia
    {
      OFFSET -1.028693 -40.73281 5
      CHANNELS 3 Zrotation Xrotation Yrotation
      JOINT right_tibia_foot
      {
        OFFSET -0.5013517 -42.05707 -5
        CHANNELS 3 Zrotation Xrotation Yrotation
        End Site
        {
          OFFSET 0 -5 10
        }
      }
    }
  }
  JOINT pelvis_left_femur
  {
    OFFSET 11.43119 -3.542788 0.2090856
    CHANNELS 3 Zrotation Xrotation Yrotation
    JOINT left_femur_tibia
    {
      OFFSET 1.028693 -40.73281 5
      CHANNELS 3 Zrotation Xrotation Yrotation
      JOINT left_tibia_foot
      {
        OFFSET 0.3200228 -42.98253 -5
        CHANNELS 3 Zrotation Xrotation Yrotation
        End Site
        {
          OFFSET 0 -5 10
        }
      }
    }
  }
  JOINT pelvis_spine1
  {
    OFFSET 0 8.64413 -3.209807
    CHANNELS 3 Zrotation Xrotation Yrotation
    JOINT spine1
    {
      OFFSET 0 29.53957 -1.762685
      CHANNELS 3 Zrotation Xrotation Yrotation
      JOINT spine2
      {
        OFFSET 0 16.36153 -0.1422377
        CHANNELS 3 Zrotation Xrotation Yrotation
        JOINT neck
        {
          OFFSET 0 11.60093 5
          CHANNELS 3 Zrotation Xrotation Yrotation
          End Site
          {
            OFFSET 0 20 0
          }
        }
      }
      JOINT right_manubrium
      {
        OFFSET -4.671311 15.89868 4
        CHANNELS 3 Zrotation Xrotation Yrotation
        JOINT right_clavicle
        {
          OFFSET -13.601 1.573642 -2.74176
          CHANNELS 3 Zrotation Xrotation Yrotation
          JOINT right_humerus
          {
            OFFSET -0.06331682 -27.72702 2.252146
            CHANNELS 3 Zrotation Xrotation Yrotation
            JOINT right_radius
            {
              OFFSET -0.5696302 -23.92083 0.4042105
              CHANNELS 3 Zrotation Xrotation Yrotation
              End Site
              {
                OFFSET 0 -15 0
              }
            }
          }
        }
      }
      JOINT left_manubrium
      {
        OFFSET 4.671311 15.89868 4
        CHANNELS 3 Zrotation Xrotation Yrotation
        JOINT left_clavicle
        {
          OFFSET 13.601 1.573642 -2.74176
          CHANNELS 3 Zrotation Xrotation Yrotation
          JOINT left_humerus
          {
            OFFSET 0.000209614 -29.01858 1.101395
            CHANNELS 3 Zrotation Xrotation Yrotation
            JOINT left_radius
            {
              OFFSET -0.2288314 -24.59216 1.790347
              CHANNELS 3 Zrotation Xrotation Yrotation
              End Site
              {
                OFFSET 0 -15 0
              }
            }
          }
        }
      }
    }
  }
}
MOTION
Frames: 13
Frame Time: 0.0416666666667
0 48.26591 0 -4.03209 -17.80077 -1.312104 -56.34309 -62.16838 -56.39324 -180 85.59601 -180 5.604858 5.684748 -1.106244 72.04217 -52.48224 67.09143 -180 79.60744 -180 -5.057502 3.111996 -18.96212 -1.781703 20.01508 1.319348 8.386025 13.6683 -10.38705 -10.26445 9.121381 9.549721 5.956575 -28.45909 4.708774 22.59551 -4.637632 22.73424 -58.87319 -32.04332 13.64122 0 -79.67098 0 18.31236 14.22069 41.05878 -26.71243 -26.67592 -4.375336 55.61799 -22.18426 -28.39715 0 -82.02943 0 -9.845076 7.795646 -24.7617
0.01766428 48.26746 0.002031137 -4.047009 -17.80639 -1.378803 -56.30792 -62.18249 -56.37902 -180 85.61724 -180 5.600161 5.698102 -1.067812 72.00639 -52.47593 67.01492 -180 79.59382 -180 -5.075009 3.073518 -18.91571 -1.656424 19.94209 1.229293 8.258312 13.75231 -10.39227 -10.12388 8.901131 9.74833 5.670273 -28.62523 5.23005 22.68587 -4.678468 22.87949 -58.82112 -31.93709 13.55156 0 -79.58857 0 18.33182 14.19195 41.06385 -26.8685 -26.94399 -4.031779 55.71483 -20.75768 -26.3057 0 -82.24834 0 -8.106194 5.211255 -22.76351
0.02350201 48.24724 -0.006181884 -4.03447 -17.80734 -1.427259 -56.37325 -62.2182 -56.43837 -180 85.6044 -180 5.602875 5.718084 -1.043765 71.99252 -52.51724 66.97698 -180 79.56546 -180 -5.093476 3.050261 -18.84695 -1.521193 19.94557 1.172538 7.99673 13.80098 -10.26284 -9.827739 8.69505 10.0636 5.432409 -28.81771 6.026715 22.85116 -4.815839 22.69699 -58.84826 -31.73163 13.2905 0 -79.64865 0 18.32105 14.12498 41.072 -27.14979 -27.85569 -3.149511 55.96723 -18.75741 -22.85973 0 -82.47816 0 -5.702027 2.494469 -20.37116
0.01497954 48.21357 -0.00437208 -4.021945 -17.81255 -1.466676 -56.46221 -62.26328 -56.50786 -180 85.54928 -180 5.614084 5.719082 -1.032457 72.00823 -52.56277 66.95115 -180 79.52526 -180 -5.098345 3.041689 -18.79495 -1.314275 20.01167 1.152665 7.641891 13.82208 -9.999863 -9.521959 8.549591 10.66835 5.229811 -28.97675 7.237959 23.08075 -5.066402 22.11727 -59.00186 -31.38171 12.80046 0 -79.84762 0 18.27096 14.0157 41.07852 -27.55326 -29.54383 -1.910559 56.32605 -16.36846 -18.15113 0 -82.08467 0 -2.746835 -0.03735661 -17.49431
-0.01726101 48.20188 0.004929351 -3.975447 -17.77484 -1.394229 -56.6252 -62.25764 -56.65983 -180 85.50784 -180 5.634212 5.695363 -1.046908 72.01202 -52.66292 66.93799 -180 79.51708 -180 -5.096449 3.044661 -18.76269 -1.055848 20.09574 1.202897 7.269731 13.78322 -9.670774 -9.374305 8.468352 11.7967 5.062494 -29.03753 9.057855 23.27928 -5.412934 21.2451 -59.26752 -30.9402 12.19787 0 -80.15934 0 18.21453 13.8818 41.0857 -27.89195 -31.73241 -0.6811288 56.74281 -13.79365 -12.77451 0 -80.29939 0 0.4368219 -2.031079 -14.12067
-0.02950445 48.21322 0.02484472 -3.899175 -17.71868 -1.234412 -56.91747 -62.15885 -56.91906 -180 85.45715 -180 5.662767 5.645723 -1.045542 71.92628 -52.82999 66.90979 -180 79.54279 -180 -5.090282 3.049759 -18.74342 -0.739653 20.17521 1.339862 6.967296 13.71644 -9.26622 -9.53878 8.446901 13.55872 4.907504 -28.97039 11.53449 23.34174 -5.815645 20.2521 -59.64563 -30.48515 11.58955 0 -80.52691 0 18.17973 13.71825 41.0977 -27.96697 -34.10408 0.2086142 57.18837 -11.36637 -7.39852 0 -77.04583 0 3.501274 -3.380344 -10.40174
-0.0159097 48.24135 0.06418101 -3.892223 -17.69732 -1.014327 -57.07553 -61.94916 -57.05542 -180 85.42122 -180 5.697297 5.562635 -1.07636 71.83017 -53.01967 66.84437 -180 79.56618 -180 -5.066572 3.063214 -18.77853 -0.2659344 20.23083 1.532395 6.750439 13.69288 -8.841204 -9.996773 8.456324 15.79316 4.75139 -28.83115 14.4582 23.24769 -6.184538 19.34994 -60.04462 -30.07447 11.12677 0 -80.93441 0 18.19331 13.53874 41.11468 -27.84369 -36.41035 0.5434825 57.67598 -9.333048 -2.542406 0 -72.69092 0 6.06306 -4.141618 -6.644033
0.08936078 48.34437 0.142067 -3.948935 -17.70526 -0.6585212 -57.13218 -61.59112 -57.01037 -180 85.39036 -180 5.737681 5.495957 -1.153406 71.57626 -53.2686 66.6746 -180 79.59048 -180 -5.037945 3.085463 -18.8195 0.3377344 20.218 1.672002 6.63967 13.77666 -8.489467 -10.53811 8.495892 18.10572 4.644154 -28.63288 17.38549 23.09251 -6.439323 18.65098 -60.35937 -29.72274 10.85335 0 -81.35098 0 18.24595 13.3398 41.13202 -27.61984 -38.43496 0.3654954 58.20988 -7.828215 1.374667 0 -67.77223 0 7.782139 -4.554552 -3.132012
-0.008121364 48.2598 0.1227404 -3.737715 -17.73651 -0.398494 -57.38057 -61.63314 -57.02402 -180 85.23969 -180 5.799012 5.40479 -1.309052 71.51693 -53.40823 66.71796 -180 79.60102 -180 -5.005336 3.135593 -18.89458 0.2733784 20.25373 2.066073 6.662976 13.77533 -8.187455 -11.00502 8.561174 20.15144 4.607414 -28.30332 19.92182 22.96758 -6.674195 18.20057 -60.56388 -29.44025 10.6231 0 -81.71381 0 18.27682 13.13379 41.13717 -26.96919 -40.12481 -0.1648474 59.00682 -6.993985 4.226131 0 -62.7269 0 8.435645 -4.831698 -0.02115443
-0.02372137 48.24025 0.1346917 -3.702598 -17.80775 -0.06835804 -57.29221 -61.57979 -56.71757 -180 85.15822 -180 5.864615 5.336505 -1.520924 71.4485 -53.58398 66.71904 -180 79.60906 -180 -4.960694 3.196702 -18.97025 0.3339984 20.22156 2.258111 6.851605 13.89409 -8.084487 -11.28303 8.626737 21.75591 4.670725 -28.00194 21.89988 22.91607 -6.8821 17.9123 -60.71799 -29.15344 10.39648 0 -81.93709 0 18.30152 12.92246 41.12852 -26.1962 -41.42871 -0.8836973 59.96194 -6.636682 6.040522 0 -57.73938 0 8.0581 -5.180423 2.626021
0.06357383 48.30733 0.1613162 -3.858156 -17.85782 0.270021 -56.92804 -61.43081 -56.18708 -180 85.16909 -180 5.931785 5.30157 -1.761386 71.39184 -53.79741 66.69758 -180 79.61817 -180 -4.903597 3.260367 -19.02538 0.5022101 20.12492 2.183605 7.158811 14.07524 -8.161513 -11.33268 8.648926 22.87265 4.832751 -27.78863 23.30287 22.91983 -7.051147 17.79869 -60.83444 -28.89864 10.2209 0 -81.97556 0 18.33278 12.70546 41.10242 -25.40539 -42.43679 -1.760215 60.97665 -6.584874 7.073283 0 -52.68389 0 6.90937 -5.620362 4.890711
0.007231333 48.21967 0.1205787 -3.777203 -17.84781 0.3288072 -56.79169 -61.73501 -55.84135 -180 85.09734 -180 6.009074 5.254942 -2.010133 71.56587 -53.78982 66.92466 -180 79.61307 -180 -4.862018 3.323732 -19.11247 0.02138429 20.07153 2.265018 7.449751 14.06367 -8.228943 -11.13672 8.622317 23.5099 5.096201 -27.57987 24.13837 22.93308 -7.184932 17.87937 -60.84895 -28.77656 10.19812 0 -81.87446 0 18.38662 12.48786 41.06495 -24.36659 -43.31533 -2.714552 62.12668 -6.763353 7.685173 0 -47.54074 0 5.323586 -6.174101 6.850596
0.04588372 48.21427 0.108995 -3.820001 -17.79639 0.3305067 -56.59476 -61.94244 -55.49783 -180 85.10081 -180 6.075168 5.241807 -2.211355 71.69485 -53.75662 67.12217 -180 79.60671 -180 -4.824935 3.357325 -19.19543 -0.3295057 19.99156 2.154476 7.687316 14.01368 -8.357987 -10.73083 8.541085 23.69266 5.453791 -27.49512 24.4447 22.9693 -7.243566 18.07382 -60.82908 -28.71464 10.30543 0 -81.61809 0 18.47925 12.26454 41.01412 -23.49942 -44.15785 -3.650437 63.23558 -6.961944 8.101478 0 -42.57194 0 3.560691 -6.869814 8.562117
